<svg width="64" height="64" viewBox="0 0 64 64" fill="none" xmlns="http://www.w3.org/2000/svg">
  <!-- Background circle with gradient -->
  <defs>
    <linearGradient id="bgGradient" x1="0%" y1="0%" x2="100%" y2="100%">
      <stop offset="0%" style="stop-color:#1e40af;stop-opacity:1" />
      <stop offset="100%" style="stop-color:#3b82f6;stop-opacity:1" />
    </linearGradient>
    <linearGradient id="iconGradient" x1="0%" y1="0%" x2="100%" y2="100%">
      <stop offset="0%" style="stop-color:#ffffff;stop-opacity:1" />
      <stop offset="100%" style="stop-color:#e2e8f0;stop-opacity:1" />
    </linearGradient>
  </defs>
  
  <!-- Main background -->
  <circle cx="32" cy="32" r="30" fill="url(#bgGradient)" stroke="#1e40af" stroke-width="2"/>
  
  <!-- Document icon -->
  <path d="M20 16h16c1.1 0 2 .9 2 2v28c0 1.1-.9 2-2 2H20c-1.1 0-2-.9-2-2V18c0-1.1.9-2 2-2z" 
        fill="url(#iconGradient)" stroke="#1e40af" stroke-width="1"/>
  
  <!-- Document lines -->
  <line x1="22" y1="22" x2="34" y2="22" stroke="#1e40af" stroke-width="1.5" stroke-linecap="round"/>
  <line x1="22" y1="26" x2="34" y2="26" stroke="#1e40af" stroke-width="1.5" stroke-linecap="round"/>
  <line x1="22" y1="30" x2="30" y2="30" stroke="#1e40af" stroke-width="1.5" stroke-linecap="round"/>
  
  <!-- Shield/Security icon overlay -->
  <path d="M32 34l6-3v-6l-6-3-6 3v6l6 3z" fill="#10b981" stroke="#059669" stroke-width="1"/>
  <path d="M29 28l2 2 4-4" stroke="white" stroke-width="1.5" stroke-linecap="round" stroke-linejoin="round"/>
  
  <!-- Signature line -->
  <line x1="22" y1="42" x2="34" y2="42" stroke="#6366f1" stroke-width="2" stroke-linecap="round"/>
  <circle cx="36" cy="42" r="2" fill="#6366f1"/>
</svg>
